<svg width="67" height="68" viewBox="0 0 67 68" fill="none" xmlns="http://www.w3.org/2000/svg">
<path d="M65.3333 10.2222L57.1111 1.99999C56.4044 1.32616 55.4654 0.950256 54.4889 0.950256C53.5124 0.950256 52.5734 1.32616 51.8667 1.99999L44.5556 9.33333H5.33333C4.15459 9.33333 3.02413 9.80158 2.19063 10.6351C1.35714 11.4686 0.888885 12.599 0.888885 13.7778V62.6667C0.888885 63.8454 1.35714 64.9759 2.19063 65.8094C3.02413 66.6429 4.15459 67.1111 5.33333 67.1111H54.2222C55.401 67.1111 56.5314 66.6429 57.3649 65.8094C58.1984 64.9759 58.6667 63.8454 58.6667 62.6667V22.1333L65.3333 15.4667C66.0281 14.7708 66.4184 13.8277 66.4184 12.8444C66.4184 11.8611 66.0281 10.918 65.3333 10.2222ZM33.8444 40.7333L24.5333 42.8L26.7556 33.5778L47.9778 12.3111L55.1556 19.4889L33.8444 40.7333ZM57.5556 16.9555L50.3778 9.77777L54.4889 5.66666L61.6667 12.8444L57.5556 16.9555Z" fill="white"/>
</svg>
